<?xml version="1.0" encoding="utf-8"?>
<!-- Generator: Adobe Illustrator 25.4.1, SVG Export Plug-In . SVG Version: 6.00 Build 0)  -->
<svg version="1.1" xmlns="http://www.w3.org/2000/svg" xmlns:xlink="http://www.w3.org/1999/xlink" x="0px" y="0px"
	 viewBox="0 0 719.6 1024" style="enable-background:new 0 0 719.6 1024;" xml:space="preserve">
<style type="text/css">
	.st0{fill:#FFFFFF;}
</style>
<g id="bg">
</g>
<g id="default-size">
	<g>
		<path class="st0" d="M572.2,757c-10.6,12.6-21.4,25-32.3,37c20.8,5.4,40,11.6,57.5,18.8c53.8,22.1,77.9,47.8,77.9,63.5
			c0,15.7-24.1,41.4-77.9,63.5c-30.1,12.3-65.4,22.1-105.1,29c-41.9,7.3-86.4,11-132.5,11s-90.6-3.7-132.5-11
			c-39.7-6.9-75-16.6-105.1-29c-53.8-22.1-77.9-47.8-77.9-63.5c0-15.7,24.1-41.4,77.9-63.5c17.4-7.2,36.7-13.4,57.5-18.8
			c-10.8-12-21.6-24.4-32.3-37C58,783.8,0,827.3,0,876.2C0,957.8,161.1,1024,359.8,1024s359.8-66.2,359.8-147.8
			C719.6,827.3,661.5,783.8,572.2,757z"/>
		<path class="st0" d="M359.8,0C161.4,0,0,165.4,0,368.6c0,195.6,316.1,517.5,359.8,517.5s359.8-322,359.8-517.5
			C719.6,165.4,558.3,0,359.8,0z M359.8,500.2c-79.8,0-144.6-63.2-144.6-140.8s64.9-140.8,144.6-140.8s144.5,63.2,144.5,140.8
			S439.5,500.2,359.8,500.2z"/>
	</g>
</g>
</svg>
