<svg id="Calque_2" data-name="Calque 2" xmlns="http://www.w3.org/2000/svg" viewBox="0 0 1281.11 223.91"><defs><style>.cls-1{fill:#8c1df0;}.cls-2{fill:#fff;}</style></defs><path class="cls-1" d="M111.15,167a60.54,60.54,0,0,1-20.42,13.37,68.41,68.41,0,0,1-25.87,4.79A68.5,68.5,0,0,1,39,180.34a61,61,0,0,1-34.2-34A66.8,66.8,0,0,1,0,120.76,66.7,66.7,0,0,1,4.83,95.1,61.09,61.09,0,0,1,39,61.19,68.31,68.31,0,0,1,64.86,56.4a67.71,67.71,0,0,1,25.75,4.79A61.36,61.36,0,0,1,111,74.47L95.81,89.9A40.08,40.08,0,0,0,64.53,75.54a41.26,41.26,0,0,0-16.79,3.39,40,40,0,0,0-13.41,9.49,43.67,43.67,0,0,0-8.87,14.36,52.34,52.34,0,0,0,0,35.93,44.3,44.3,0,0,0,8.87,14.36,39.73,39.73,0,0,0,13.41,9.53A41.26,41.26,0,0,0,64.53,166a40,40,0,0,0,31.28-14.35Z"/><path class="cls-1" d="M133.25,78.27a9.69,9.69,0,0,1-7.23-3,10.49,10.49,0,0,1,0-14.52,9.68,9.68,0,0,1,7.23-3A10.21,10.21,0,0,1,143.56,68a10.23,10.23,0,0,1-10.31,10.32ZM143.4,182.65H123.1V100.13h20.3Z"/><path class="cls-1" d="M216.29,180.51a45.43,45.43,0,0,1-17.58,3.79,30.32,30.32,0,0,1-15.22-3.71,26.3,26.3,0,0,1-10.24-10.36,31.51,31.51,0,0,1-3.67-15.47V118.29H155.14V100.13h15.52V79.5h19.22v20.63H213.4v18.16H189.88v32.76q0,7,3.84,11.06a12.71,12.71,0,0,0,9.61,4A18.94,18.94,0,0,0,213.48,163Z"/><path class="cls-1" d="M265.36,223.91h-21.7l17.16-41.59-40.93-82.19h22.86l27.73,59,24.42-59h21.7Z"/><path class="cls-1" d="M351.67,0c-13.18,0-23.9,11-23.9,24.49,0,13,21,34.39,23.9,34.39s23.9-21.39,23.9-34.39C375.57,11,364.85,0,351.67,0Zm0,33.23a9.5,9.5,0,0,1-9.61-9.36,9.61,9.61,0,0,1,19.21,0A9.5,9.5,0,0,1,351.67,33.23Z"/><rect class="cls-2" x="342.14" y="79.51" width="20.3" height="103.15"/><path class="cls-2" d="M457.6,182.65H437.3V139.08q0-10.31-5.28-16.3t-14.27-6q-9.25,0-14.86,6.31t-5.61,17v42.58H377V100.13h16.75l.66,13.29a30,30,0,0,1,11.76-11.1,36.3,36.3,0,0,1,17.12-3.84q16,0,25.17,9.74t9.16,26.9Z"/><path class="cls-2" d="M521.12,182.65H499.33V78H461.71V58.87h97V78H521.12Z"/><path class="cls-2" d="M569.35,182.65V58.87h20.3V110.7q9.08-12.21,26.65-12.22,15.86,0,24.76,9.7T650,135.12v47.53h-20.3V140.32q0-11.22-5.2-17.45t-14.6-6.23q-9.5,0-14.86,6.31t-5.36,17.37v42.33Z"/><path class="cls-2" d="M740.3,173.08a56.17,56.17,0,0,1-33.75,11.22,48.88,48.88,0,0,1-23.85-5.77A44,44,0,0,1,666,162.72a42.26,42.26,0,0,1-6.15-22.56,41.19,41.19,0,0,1,5.57-21.38,40.41,40.41,0,0,1,15.27-14.85,44,44,0,0,1,21.91-5.45,41.36,41.36,0,0,1,22.32,6,40.74,40.74,0,0,1,15,16.58q5.36,10.61,5.36,24.64v2.64H681.71a24.28,24.28,0,0,0,5.24,9.9,25.4,25.4,0,0,0,9.37,6.68,31.8,31.8,0,0,0,12.62,2.39,39.39,39.39,0,0,0,24.43-8.58Zm-59.41-36.64h45.55a23.78,23.78,0,0,0-3.76-10.81,21.69,21.69,0,0,0-8-7.22,23.25,23.25,0,0,0-11-2.6,22.83,22.83,0,0,0-11.06,2.64,21.78,21.78,0,0,0-7.92,7.31A24.7,24.7,0,0,0,680.89,136.44Z"/><path class="cls-2" d="M772.22,182.65V58.87h40.93q15.51,0,26.69,5A38.43,38.43,0,0,1,857,77.94q6,9.15,6,21.86t-6,21.87a38.6,38.6,0,0,1-17.13,14.24q-11.13,5-26.57,5H794v41.75ZM794,121.84h17.09q14.26,0,21.95-5.82t7.67-16.22q0-10.39-7.67-16.09T811.09,78H794Z"/><path class="cls-2" d="M906.55,184.3A45.12,45.12,0,0,1,884,178.69a41.68,41.68,0,0,1-15.68-15.31,45.06,45.06,0,0,1,0-44A41.73,41.73,0,0,1,884,104.1a47.89,47.89,0,0,1,45,0,41.16,41.16,0,0,1,15.55,15.3,45.55,45.55,0,0,1,0,44A41.12,41.12,0,0,1,929,178.69,44.75,44.75,0,0,1,906.55,184.3Zm-.16-18.23a22,22,0,0,0,11.8-3.22A23,23,0,0,0,926.4,154a26.43,26.43,0,0,0,3-12.71,26,26,0,0,0-3-12.58,23,23,0,0,0-8.21-8.79,23.16,23.16,0,0,0-23.56,0,22.68,22.68,0,0,0-8.25,8.79,26,26,0,0,0-3,12.58,26.43,26.43,0,0,0,3,12.71,22.72,22.72,0,0,0,8.25,8.83A22.05,22.05,0,0,0,906.39,166.07Z"/><path class="cls-2" d="M1035.34,169.94a41.14,41.14,0,0,1-14.61,10.61A46.25,46.25,0,0,1,1002,184.3a45,45,0,0,1-22.49-5.61,41.68,41.68,0,0,1-15.68-15.31,45.06,45.06,0,0,1,0-44,41.73,41.73,0,0,1,15.68-15.3A45,45,0,0,1,1002,98.48a46.13,46.13,0,0,1,18.61,3.72,41.26,41.26,0,0,1,14.56,10.48l-11.88,12.62a25.72,25.72,0,0,0-9-6.27,28.13,28.13,0,0,0-11.09-2.23,24.92,24.92,0,0,0-12.59,3.14,22.38,22.38,0,0,0-8.58,8.66,27.77,27.77,0,0,0,0,25.46,22.62,22.62,0,0,0,8.58,8.75,24.64,24.64,0,0,0,12.59,3.17,27.85,27.85,0,0,0,11.14-2.27,25.58,25.58,0,0,0,8.91-6.22Z"/><path class="cls-2" d="M1065.69,182.65h-20.3V58.87h20.3v79.8l7.51-9.16L1101,100.13h25.5L1092,136.61l38.86,46h-26.16L1078,149.73l-12.3,12.13Z"/><path class="cls-2" d="M1211.26,173.08a56.17,56.17,0,0,1-33.75,11.22,48.88,48.88,0,0,1-23.85-5.77A44,44,0,0,1,1137,162.72a42.26,42.26,0,0,1-6.15-22.56,41.19,41.19,0,0,1,5.57-21.38,40.48,40.48,0,0,1,15.27-14.85,44,44,0,0,1,21.91-5.45,41.36,41.36,0,0,1,22.32,6,40.74,40.74,0,0,1,15,16.58q5.36,10.61,5.36,24.64v2.64h-63.54a24.28,24.28,0,0,0,5.24,9.9,25.49,25.49,0,0,0,9.37,6.68,31.8,31.8,0,0,0,12.62,2.39,39.39,39.39,0,0,0,24.43-8.58Zm-59.41-36.64h45.55a23.54,23.54,0,0,0-3.76-10.81,21.69,21.69,0,0,0-8-7.22,23.25,23.25,0,0,0-11-2.6,22.86,22.86,0,0,0-11.06,2.64,21.78,21.78,0,0,0-7.92,7.31A24.7,24.7,0,0,0,1151.85,136.44Z"/><path class="cls-2" d="M1281.11,180.51a45.43,45.43,0,0,1-17.58,3.79,30.32,30.32,0,0,1-15.22-3.71,26.27,26.27,0,0,1-10.23-10.36,31.41,31.41,0,0,1-3.68-15.47V118.29H1220V100.13h15.52V79.5h19.22v20.63h23.52v18.16H1254.7v32.76q0,7,3.84,11.06a12.72,12.72,0,0,0,9.62,4,19,19,0,0,0,10.15-3.14Z"/><path class="cls-2" d="M771.93,182.65V58.87h40.93q15.52,0,26.7,5a38.45,38.45,0,0,1,17.16,14.11q6,9.15,6,21.86t-6,21.87a38.57,38.57,0,0,1-17.12,14.24q-11.13,5-26.57,5H793.72v41.75Zm21.79-60.81H810.8q14.28,0,22-5.82t7.68-16.22q0-10.39-7.68-16.09T810.8,78H793.72Z"/><path class="cls-2" d="M906.27,184.3a45.12,45.12,0,0,1-22.57-5.61A41.61,41.61,0,0,1,868,163.38a45,45,0,0,1,0-44,41.66,41.66,0,0,1,15.68-15.3,47.87,47.87,0,0,1,45,0,41.12,41.12,0,0,1,15.56,15.3,42.86,42.86,0,0,1,5.65,22,42.81,42.81,0,0,1-5.65,22,41.07,41.07,0,0,1-15.56,15.31A44.71,44.71,0,0,1,906.27,184.3Zm-.17-18.23a22,22,0,0,0,11.8-3.22,22.84,22.84,0,0,0,8.21-8.83,26.43,26.43,0,0,0,3-12.71,26,26,0,0,0-3-12.58,22.8,22.8,0,0,0-8.21-8.79,23.16,23.16,0,0,0-23.56,0,22.83,22.83,0,0,0-8.25,8.79,26,26,0,0,0-3,12.58,26.43,26.43,0,0,0,3,12.71,22.87,22.87,0,0,0,8.25,8.83A22.1,22.1,0,0,0,906.1,166.07Z"/><path class="cls-2" d="M1035.05,169.94a41,41,0,0,1-14.6,10.61,46.33,46.33,0,0,1-18.74,3.75,44.94,44.94,0,0,1-22.48-5.61,41.61,41.61,0,0,1-15.68-15.31,45,45,0,0,1,0-44,41.66,41.66,0,0,1,15.68-15.3,45,45,0,0,1,22.48-5.62,46.06,46.06,0,0,1,18.61,3.72,41.21,41.21,0,0,1,14.57,10.48L1023,125.3a25.81,25.81,0,0,0-9-6.27,28.14,28.14,0,0,0-11.1-2.23,24.91,24.91,0,0,0-12.58,3.14,22.38,22.38,0,0,0-8.58,8.66,27.69,27.69,0,0,0,0,25.46,22.62,22.62,0,0,0,8.58,8.75A24.62,24.62,0,0,0,1003,166a27.78,27.78,0,0,0,11.14-2.27,25.71,25.71,0,0,0,8.92-6.22Z"/><path class="cls-2" d="M1065.41,182.65h-20.3V58.87h20.3v79.8l7.51-9.16,27.81-29.38h25.5l-34.5,36.48,38.87,46h-26.16l-26.74-32.92-12.29,12.13Z"/><path class="cls-2" d="M1211,173.08a56.17,56.17,0,0,1-33.75,11.22,48.88,48.88,0,0,1-23.85-5.77,44,44,0,0,1-16.71-15.81,42.26,42.26,0,0,1-6.15-22.56,41.19,41.19,0,0,1,5.57-21.38,40.34,40.34,0,0,1,15.27-14.85,43.94,43.94,0,0,1,21.91-5.45,41.36,41.36,0,0,1,22.32,6,40.64,40.64,0,0,1,15,16.58q5.37,10.61,5.37,24.64v2.64h-63.54a24.16,24.16,0,0,0,5.24,9.9,25.45,25.45,0,0,0,9.36,6.68,31.81,31.81,0,0,0,12.63,2.39,39.41,39.41,0,0,0,24.43-8.58Zm-59.42-36.64h45.55a23.65,23.65,0,0,0-3.75-10.81,21.64,21.64,0,0,0-8-7.22,23.18,23.18,0,0,0-11-2.6,22.83,22.83,0,0,0-11.06,2.64,21.62,21.62,0,0,0-7.92,7.31A24.71,24.71,0,0,0,1151.56,136.44Z"/><path class="cls-2" d="M1280.83,180.51a45.47,45.47,0,0,1-17.58,3.79,30.29,30.29,0,0,1-15.22-3.71,26.3,26.3,0,0,1-10.24-10.36,31.51,31.51,0,0,1-3.67-15.47V118.29h-14.44V100.13h15.51V79.5h19.23v20.63h23.52v18.16h-23.52v32.76q0,7,3.84,11.06a12.71,12.71,0,0,0,9.61,4A18.94,18.94,0,0,0,1278,163Z"/></svg>