<?xml version="1.0" encoding="utf-8"?>
<!-- Generator: Adobe Illustrator 25.4.1, SVG Export Plug-In . SVG Version: 6.00 Build 0)  -->
<svg version="1.1" xmlns="http://www.w3.org/2000/svg" xmlns:xlink="http://www.w3.org/1999/xlink" x="0px" y="0px"
	 viewBox="0 0 512 382.7" style="enable-background:new 0 0 512 382.7;" xml:space="preserve">
<style type="text/css">
	.st0{fill:#EEEEEE;}
	.st1{fill:#959595;}
</style>
<g id="Calque_2_00000031897816497920855300000000037086335164991385_">
	<rect class="st0" width="512" height="382.7"/>
</g>
<g id="Calque_3">
	<g>
		<path class="st1" d="M156.4,211.5h143.8c0,0-37.6-48.6-48.9-47.1s-11,24-23.2,23c-13.5-1.1-21.5-59.2-41.6-58.2
			C168.7,130.1,156.4,211.5,156.4,211.5z"/>
		<circle class="st1" cx="280.4" cy="134.8" r="18.5"/>
		<path class="st1" d="M310.3,105v117.7H144.4V105H310.3 M322.3,93H132.4v141.7h189.9V93z"/>
		<polygon class="st1" points="379.6,159.2 327.7,137.2 327.7,150.2 363.9,165.6 317.9,274 234.8,238.7 204.1,238.7 324.2,289.7 		
			"/>
	</g>
</g>
</svg>
